<svg aria-roledescription="er" role="graphics-document document" viewBox="0 0 1521.265625 731.560546875" style="max-width: 1521.27px; background-color: transparent;" xmlns:xlink="http://www.w3.org/1999/xlink" xmlns="http://www.w3.org/2000/svg" width="100%" id="mermaid-1682116973909"><style>#mermaid-1682116973909{font-family:"trebuchet ms",verdana,arial,sans-serif;font-size:16px;fill:#333;}#mermaid-1682116973909 .error-icon{fill:#552222;}#mermaid-1682116973909 .error-text{fill:#552222;stroke:#552222;}#mermaid-1682116973909 .edge-thickness-normal{stroke-width:2px;}#mermaid-1682116973909 .edge-thickness-thick{stroke-width:3.5px;}#mermaid-1682116973909 .edge-pattern-solid{stroke-dasharray:0;}#mermaid-1682116973909 .edge-pattern-dashed{stroke-dasharray:3;}#mermaid-1682116973909 .edge-pattern-dotted{stroke-dasharray:2;}#mermaid-1682116973909 .marker{fill:#333333;stroke:#333333;}#mermaid-1682116973909 .marker.cross{stroke:#333333;}#mermaid-1682116973909 svg{font-family:"trebuchet ms",verdana,arial,sans-serif;font-size:16px;}#mermaid-1682116973909 .entityBox{fill:#ECECFF;stroke:#9370DB;}#mermaid-1682116973909 .attributeBoxOdd{fill:#ffffff;stroke:#9370DB;}#mermaid-1682116973909 .attributeBoxEven{fill:#f2f2f2;stroke:#9370DB;}#mermaid-1682116973909 .relationshipLabelBox{fill:hsl(80, 100%, 96.2745098039%);opacity:0.7;background-color:hsl(80, 100%, 96.2745098039%);}#mermaid-1682116973909 .relationshipLabelBox rect{opacity:0.5;}#mermaid-1682116973909 .relationshipLine{stroke:#333333;}#mermaid-1682116973909 .entityTitleText{text-anchor:middle;font-size:18px;fill:#333;}#mermaid-1682116973909 :root{--mermaid-font-family:"trebuchet ms",verdana,arial,sans-serif;}</style><g/><defs><marker orient="auto" markerHeight="18" markerWidth="18" refY="9" refX="0" id="ONLY_ONE_START"><path d="M9,0 L9,18 M15,0 L15,18" fill="none" stroke="gray"/></marker></defs><defs><marker orient="auto" markerHeight="18" markerWidth="18" refY="9" refX="18" id="ONLY_ONE_END"><path d="M3,0 L3,18 M9,0 L9,18" fill="none" stroke="gray"/></marker></defs><defs><marker orient="auto" markerHeight="18" markerWidth="30" refY="9" refX="0" id="ZERO_OR_ONE_START"><circle r="6" cy="9" cx="21" fill="white" stroke="gray"/><path d="M9,0 L9,18" fill="none" stroke="gray"/></marker></defs><defs><marker orient="auto" markerHeight="18" markerWidth="30" refY="9" refX="30" id="ZERO_OR_ONE_END"><circle r="6" cy="9" cx="9" fill="white" stroke="gray"/><path d="M21,0 L21,18" fill="none" stroke="gray"/></marker></defs><defs><marker orient="auto" markerHeight="36" markerWidth="45" refY="18" refX="18" id="ONE_OR_MORE_START"><path d="M0,18 Q 18,0 36,18 Q 18,36 0,18 M42,9 L42,27" fill="none" stroke="gray"/></marker></defs><defs><marker orient="auto" markerHeight="36" markerWidth="45" refY="18" refX="27" id="ONE_OR_MORE_END"><path d="M3,9 L3,27 M9,18 Q27,0 45,18 Q27,36 9,18" fill="none" stroke="gray"/></marker></defs><defs><marker orient="auto" markerHeight="36" markerWidth="57" refY="18" refX="18" id="ZERO_OR_MORE_START"><circle r="6" cy="18" cx="48" fill="white" stroke="gray"/><path d="M0,18 Q18,0 36,18 Q18,36 0,18" fill="none" stroke="gray"/></marker></defs><defs><marker orient="auto" markerHeight="36" markerWidth="57" refY="18" refX="39" id="ZERO_OR_MORE_END"><circle r="6" cy="18" cx="9" fill="white" stroke="gray"/><path d="M21,18 Q39,0 57,18 Q39,36 21,18" fill="none" stroke="gray"/></marker></defs><path style="stroke: gray; fill: none;" marker-start="url(#ONLY_ONE_START)" marker-end="url(#ONE_OR_MORE_END)" d="M804.875,286.9941929588678L860.7916666666666,274.2077259032232C916.7083333333334,261.42125884757854,1028.5416666666667,235.8483247362893,1098.4375,223.06185768064464C1168.3333333333333,210.275390625,1196.2916666666667,210.275390625,1224.25,226.98795572916666C1252.2083333333333,243.70052083333334,1280.1666666666667,277.1256510416667,1280.1666666666667,310.55078125C1280.1666666666667,343.9759114583333,1252.2083333333333,377.4010416666667,1224.25,394.1136067708333C1196.2916666666667,410.826171875,1168.3333333333333,410.826171875,1098.4375,398.0397048193554C1028.5416666666667,385.25323776371073,916.7083333333334,359.6803036524214,860.7916666666666,346.8938365967768L804.875,334.1073695411322" class="er relationshipLine"/><path style="stroke: gray; fill: none;" marker-start="url(#ONLY_ONE_START)" marker-end="url(#ONE_OR_MORE_END)" d="M868.33203125,101.50539597175364L840.5865885416666,111.30039508062804C812.8411458333334,121.09539418950243,757.3502604166666,140.68539240725121,729.6048177083334,158.81372484945894C701.859375,176.94205729166666,701.859375,193.60872395833334,701.859375,201.94205729166666L701.859375,210.275390625" class="er relationshipLine"/><path style="stroke: gray; fill: none;" marker-start="url(#ONLY_ONE_START)" marker-end="url(#ZERO_OR_MORE_END)" d="M1074.36328125,87.32233036074484L1130.8235677083333,99.48117373812072C1187.2838541666667,111.64001711549656,1300.2044270833333,135.95770387024828,1356.6647135416667,173.16244568512414C1413.125,210.3671875,1413.125,260.458984375,1413.125,310.55078125C1413.125,360.642578125,1413.125,410.734375,1408.5149741951127,449.6442057291667C1403.9049483902254,488.5540364583333,1394.6848967804508,516.2819010416666,1390.0748709755633,530.1458333333334L1385.464845170676,544.009765625" class="er relationshipLine"/><path style="stroke: gray; fill: none;" marker-start="url(#ONLY_ONE_START)" marker-end="url(#ONLY_ONE_END)" d="M598.84375,335.4109729619105L512.2278645833334,356.31350611409204C425.6119791666667,377.21603926627364,252.38020833333334,419.0211055706368,165.76432291666666,448.2569720561517C79.1484375,477.4928385416667,79.1484375,494.1595052083333,79.1484375,502.4928385416667L79.1484375,510.826171875" class="er relationshipLine"/><path style="stroke: gray; fill: none;" marker-start="url(#ONLY_ONE_START)" marker-end="url(#ZERO_OR_ONE_END)" d="M598.84375,349.0263700886876L548.9544270833334,367.65967038640633C499.0651041666667,386.29297068412507,399.2864583333333,423.55957127956253,349.3971354166667,461.00406949394795C299.5078125,498.4485677083333,299.5078125,536.0709635416666,299.5078125,554.8821614583334L299.5078125,573.693359375" class="er relationshipLine"/><path style="stroke: gray; fill: none;" marker-start="url(#ONLY_ONE_START)" marker-end="url(#ZERO_OR_ONE_END)" d="M598.84375,400.40392144776223L587.2981770833334,410.4742965189685C575.7526041666666,420.54467159017486,552.6614583333334,440.68542173258743,541.1158854166666,469.56699472046034C529.5703125,498.4485677083333,529.5703125,536.0709635416666,529.5703125,554.8821614583334L529.5703125,573.693359375" class="er relationshipLine"/><path style="stroke: gray; fill: none;" marker-start="url(#ONLY_ONE_START)" marker-end="url(#ZERO_OR_ONE_END)" d="M750.0962416616303,410.826171875L754.1049409680253,419.1595052083333C758.1136402744202,427.4928385416667,766.1310388872101,444.1595052083333,770.139738193605,471.3040364583333C774.1484375,498.4485677083333,774.1484375,536.0709635416666,774.1484375,554.8821614583334L774.1484375,573.693359375" class="er relationshipLine"/><path style="stroke: gray; fill: none;" marker-start="url(#ONLY_ONE_START)" marker-end="url(#ZERO_OR_ONE_END)" d="M804.875,360.39686332635273L839.4674479166666,377.13508141779397C874.0598958333334,393.8732995092352,943.2447916666666,427.3497356921176,977.8372395833334,462.89915170022545C1012.4296875,498.4485677083333,1012.4296875,536.0709635416666,1012.4296875,554.8821614583334L1012.4296875,573.693359375" class="er relationshipLine"/><path style="stroke: gray; fill: none;" marker-start="url(#ONLY_ONE_START)" marker-end="url(#ZERO_OR_MORE_END)" d="M804.875,338.14967119437483L881.1920572916666,358.5957546411457C957.5091145833334,379.0418380879166,1110.1432291666667,419.93400498145826,1195.7123921537825,454.2440207198958C1281.2815551408985,488.5540364583333,1299.7857665317972,516.2819010416666,1309.0378722272465,530.1458333333334L1318.2899779226957,544.009765625" class="er relationshipLine"/><g transform="translate(598.84375,210.275390625 )" id="entity-Page-7a725333-9963-54c6-94fb-e69f5a16bdeb"><rect height="200.55078506469727" width="206.03125" y="0" x="0" class="er entityBox"/><text style="dominant-baseline: middle; text-anchor: middle; font-size: 12px;" transform="translate(103.015625,12)" y="0" x="0" id="text-entity-Page-7a725333-9963-54c6-94fb-e69f5a16bdeb" class="er entityLabel">Page</text><rect height="22.091797828674316" width="106.9375" y="24" x="0" class="er attributeBoxOdd"/><text style="dominant-baseline: middle; font-size: 10.2px;" transform="translate(5,35.04589891433716)" y="0" x="0" id="text-entity-Page-7a725333-9963-54c6-94fb-e69f5a16bdeb-attr-1-type" class="er entityLabel">string</text><rect height="22.091797828674316" width="77.53125" y="24" x="106.9375" class="er attributeBoxOdd"/><text style="dominant-baseline: middle; font-size: 10.2px;" transform="translate(111.9375,35.04589891433716)" y="0" x="0" id="text-entity-Page-7a725333-9963-54c6-94fb-e69f5a16bdeb-attr-1-name" class="er entityLabel">name</text><rect height="22.091797828674316" width="21.5625" y="24" x="184.46875" class="er attributeBoxOdd"/><text style="dominant-baseline: middle; font-size: 10.2px;" transform="translate(189.46875,35.04589891433716)" y="0" x="0" id="text-entity-Page-7a725333-9963-54c6-94fb-e69f5a16bdeb-attr-1-key" class="er entityLabel">PK</text><rect height="22.091797828674316" width="106.9375" y="46.091797828674316" x="0" class="er attributeBoxEven"/><text style="dominant-baseline: middle; font-size: 10.2px;" transform="translate(5,57.137696743011475)" y="0" x="0" id="text-entity-Page-7a725333-9963-54c6-94fb-e69f5a16bdeb-attr-2-type" class="er entityLabel">string</text><rect height="22.091797828674316" width="77.53125" y="46.091797828674316" x="106.9375" class="er attributeBoxEven"/><text style="dominant-baseline: middle; font-size: 10.2px;" transform="translate(111.9375,57.137696743011475)" y="0" x="0" id="text-entity-Page-7a725333-9963-54c6-94fb-e69f5a16bdeb-attr-2-name" class="er entityLabel">title</text><rect height="22.091797828674316" width="21.5625" y="46.091797828674316" x="184.46875" class="er attributeBoxEven"/><text style="dominant-baseline: middle; font-size: 10.2px;" transform="translate(189.46875,57.137696743011475)" y="0" x="0" id="text-entity-Page-7a725333-9963-54c6-94fb-e69f5a16bdeb-attr-2-key" class="er entityLabel"/><rect height="22.091797828674316" width="106.9375" y="68.18359565734863" x="0" class="er attributeBoxOdd"/><text style="dominant-baseline: middle; font-size: 10.2px;" transform="translate(5,79.22949457168579)" y="0" x="0" id="text-entity-Page-7a725333-9963-54c6-94fb-e69f5a16bdeb-attr-3-type" class="er entityLabel">string</text><rect height="22.091797828674316" width="77.53125" y="68.18359565734863" x="106.9375" class="er attributeBoxOdd"/><text style="dominant-baseline: middle; font-size: 10.2px;" transform="translate(111.9375,79.22949457168579)" y="0" x="0" id="text-entity-Page-7a725333-9963-54c6-94fb-e69f5a16bdeb-attr-3-name" class="er entityLabel">slug</text><rect height="22.091797828674316" width="21.5625" y="68.18359565734863" x="184.46875" class="er attributeBoxOdd"/><text style="dominant-baseline: middle; font-size: 10.2px;" transform="translate(189.46875,79.22949457168579)" y="0" x="0" id="text-entity-Page-7a725333-9963-54c6-94fb-e69f5a16bdeb-attr-3-key" class="er entityLabel"/><rect height="22" width="106.9375" y="90.27539348602295" x="0" class="er attributeBoxEven"/><text style="dominant-baseline: middle; font-size: 10.2px;" transform="translate(5,101.27539348602295)" y="0" x="0" id="text-entity-Page-7a725333-9963-54c6-94fb-e69f5a16bdeb-attr-4-type" class="er entityLabel">bool</text><rect height="22" width="77.53125" y="90.27539348602295" x="106.9375" class="er attributeBoxEven"/><text style="dominant-baseline: middle; font-size: 10.2px;" transform="translate(111.9375,101.27539348602295)" y="0" x="0" id="text-entity-Page-7a725333-9963-54c6-94fb-e69f5a16bdeb-attr-4-name" class="er entityLabel">isVisibleInNav</text><rect height="22" width="21.5625" y="90.27539348602295" x="184.46875" class="er attributeBoxEven"/><text style="dominant-baseline: middle; font-size: 10.2px;" transform="translate(189.46875,101.27539348602295)" y="0" x="0" id="text-entity-Page-7a725333-9963-54c6-94fb-e69f5a16bdeb-attr-4-key" class="er entityLabel"/><rect height="22.091796875" width="106.9375" y="112.27539348602295" x="0" class="er attributeBoxOdd"/><text style="dominant-baseline: middle; font-size: 10.2px;" transform="translate(5,123.32129192352295)" y="0" x="0" id="text-entity-Page-7a725333-9963-54c6-94fb-e69f5a16bdeb-attr-5-type" class="er entityLabel">reference</text><rect height="22.091796875" width="77.53125" y="112.27539348602295" x="106.9375" class="er attributeBoxOdd"/><text style="dominant-baseline: middle; font-size: 10.2px;" transform="translate(111.9375,123.32129192352295)" y="0" x="0" id="text-entity-Page-7a725333-9963-54c6-94fb-e69f5a16bdeb-attr-5-name" class="er entityLabel">template</text><rect height="22.091796875" width="21.5625" y="112.27539348602295" x="184.46875" class="er attributeBoxOdd"/><text style="dominant-baseline: middle; font-size: 10.2px;" transform="translate(189.46875,123.32129192352295)" y="0" x="0" id="text-entity-Page-7a725333-9963-54c6-94fb-e69f5a16bdeb-attr-5-key" class="er entityLabel"/><rect height="22" width="106.9375" y="134.36719036102295" x="0" class="er attributeBoxEven"/><text style="dominant-baseline: middle; font-size: 10.2px;" transform="translate(5,145.36719036102295)" y="0" x="0" id="text-entity-Page-7a725333-9963-54c6-94fb-e69f5a16bdeb-attr-6-type" class="er entityLabel">metaSeo</text><rect height="22" width="77.53125" y="134.36719036102295" x="106.9375" class="er attributeBoxEven"/><text style="dominant-baseline: middle; font-size: 10.2px;" transform="translate(111.9375,145.36719036102295)" y="0" x="0" id="text-entity-Page-7a725333-9963-54c6-94fb-e69f5a16bdeb-attr-6-name" class="er entityLabel">meta</text><rect height="22" width="21.5625" y="134.36719036102295" x="184.46875" class="er attributeBoxEven"/><text style="dominant-baseline: middle; font-size: 10.2px;" transform="translate(189.46875,145.36719036102295)" y="0" x="0" id="text-entity-Page-7a725333-9963-54c6-94fb-e69f5a16bdeb-attr-6-key" class="er entityLabel"/><rect height="22.091797828674316" width="106.9375" y="156.36719036102295" x="0" class="er attributeBoxOdd"/><text style="dominant-baseline: middle; font-size: 10.2px;" transform="translate(5,167.4130892753601)" y="0" x="0" id="text-entity-Page-7a725333-9963-54c6-94fb-e69f5a16bdeb-attr-7-type" class="er entityLabel">pageOrExternalLink[]</text><rect height="22.091797828674316" width="77.53125" y="156.36719036102295" x="106.9375" class="er attributeBoxOdd"/><text style="dominant-baseline: middle; font-size: 10.2px;" transform="translate(111.9375,167.4130892753601)" y="0" x="0" id="text-entity-Page-7a725333-9963-54c6-94fb-e69f5a16bdeb-attr-7-name" class="er entityLabel">subpages</text><rect height="22.091797828674316" width="21.5625" y="156.36719036102295" x="184.46875" class="er attributeBoxOdd"/><text style="dominant-baseline: middle; font-size: 10.2px;" transform="translate(189.46875,167.4130892753601)" y="0" x="0" id="text-entity-Page-7a725333-9963-54c6-94fb-e69f5a16bdeb-attr-7-key" class="er entityLabel"/><rect height="22.091796875" width="106.9375" y="178.45898818969727" x="0" class="er attributeBoxEven"/><text style="dominant-baseline: middle; font-size: 10.2px;" transform="translate(5,189.50488662719727)" y="0" x="0" id="text-entity-Page-7a725333-9963-54c6-94fb-e69f5a16bdeb-attr-8-type" class="er entityLabel">commsBanner[]</text><rect height="22.091796875" width="77.53125" y="178.45898818969727" x="106.9375" class="er attributeBoxEven"/><text style="dominant-baseline: middle; font-size: 10.2px;" transform="translate(111.9375,189.50488662719727)" y="0" x="0" id="text-entity-Page-7a725333-9963-54c6-94fb-e69f5a16bdeb-attr-8-name" class="er entityLabel">commsBanners</text><rect height="22.091796875" width="21.5625" y="178.45898818969727" x="184.46875" class="er attributeBoxEven"/><text style="dominant-baseline: middle; font-size: 10.2px;" transform="translate(189.46875,189.50488662719727)" y="0" x="0" id="text-entity-Page-7a725333-9963-54c6-94fb-e69f5a16bdeb-attr-8-key" class="er entityLabel"/></g><g transform="translate(868.33203125,20 )" id="entity-Navigation-d2042281-7988-5ce6-a47b-6308a5d8f626"><rect height="90.27539253234863" width="206.03125" y="0" x="0" class="er entityBox"/><text style="dominant-baseline: middle; text-anchor: middle; font-size: 12px;" transform="translate(103.015625,12)" y="0" x="0" id="text-entity-Navigation-d2042281-7988-5ce6-a47b-6308a5d8f626" class="er entityLabel">Navigation</text><rect height="22.091797828674316" width="106.9375" y="24" x="0" class="er attributeBoxOdd"/><text style="dominant-baseline: middle; font-size: 10.2px;" transform="translate(5,35.04589891433716)" y="0" x="0" id="text-entity-Navigation-d2042281-7988-5ce6-a47b-6308a5d8f626-attr-1-type" class="er entityLabel">string</text><rect height="22.091797828674316" width="77.53125" y="24" x="106.9375" class="er attributeBoxOdd"/><text style="dominant-baseline: middle; font-size: 10.2px;" transform="translate(111.9375,35.04589891433716)" y="0" x="0" id="text-entity-Navigation-d2042281-7988-5ce6-a47b-6308a5d8f626-attr-1-name" class="er entityLabel">name</text><rect height="22.091797828674316" width="21.5625" y="24" x="184.46875" class="er attributeBoxOdd"/><text style="dominant-baseline: middle; font-size: 10.2px;" transform="translate(189.46875,35.04589891433716)" y="0" x="0" id="text-entity-Navigation-d2042281-7988-5ce6-a47b-6308a5d8f626-attr-1-key" class="er entityLabel">PK</text><rect height="22.091796875" width="106.9375" y="46.091797828674316" x="0" class="er attributeBoxEven"/><text style="dominant-baseline: middle; font-size: 10.2px;" transform="translate(5,57.137696266174316)" y="0" x="0" id="text-entity-Navigation-d2042281-7988-5ce6-a47b-6308a5d8f626-attr-2-type" class="er entityLabel">commsBanner[]</text><rect height="22.091796875" width="77.53125" y="46.091797828674316" x="106.9375" class="er attributeBoxEven"/><text style="dominant-baseline: middle; font-size: 10.2px;" transform="translate(111.9375,57.137696266174316)" y="0" x="0" id="text-entity-Navigation-d2042281-7988-5ce6-a47b-6308a5d8f626-attr-2-name" class="er entityLabel">commsBanners</text><rect height="22.091796875" width="21.5625" y="46.091797828674316" x="184.46875" class="er attributeBoxEven"/><text style="dominant-baseline: middle; font-size: 10.2px;" transform="translate(189.46875,57.137696266174316)" y="0" x="0" id="text-entity-Navigation-d2042281-7988-5ce6-a47b-6308a5d8f626-attr-2-key" class="er entityLabel"/><rect height="22.091797828674316" width="106.9375" y="68.18359470367432" x="0" class="er attributeBoxOdd"/><text style="dominant-baseline: middle; font-size: 10.2px;" transform="translate(5,79.22949361801147)" y="0" x="0" id="text-entity-Navigation-d2042281-7988-5ce6-a47b-6308a5d8f626-attr-3-type" class="er entityLabel">pageOrExternalLink[]</text><rect height="22.091797828674316" width="77.53125" y="68.18359470367432" x="106.9375" class="er attributeBoxOdd"/><text style="dominant-baseline: middle; font-size: 10.2px;" transform="translate(111.9375,79.22949361801147)" y="0" x="0" id="text-entity-Navigation-d2042281-7988-5ce6-a47b-6308a5d8f626-attr-3-name" class="er entityLabel">pages</text><rect height="22.091797828674316" width="21.5625" y="68.18359470367432" x="184.46875" class="er attributeBoxOdd"/><text style="dominant-baseline: middle; font-size: 10.2px;" transform="translate(189.46875,79.22949361801147)" y="0" x="0" id="text-entity-Navigation-d2042281-7988-5ce6-a47b-6308a5d8f626-attr-3-key" class="er entityLabel"/></g><g transform="translate(1224.984375,544.009765625 )" id="entity-CommsBanner-806a413f-9bc6-5f66-958f-fb6f6d7f3f3c"><rect height="134.36719131469727" width="276.28125" y="0" x="0" class="er entityBox"/><text style="dominant-baseline: middle; text-anchor: middle; font-size: 12px;" transform="translate(138.140625,12)" y="0" x="0" id="text-entity-CommsBanner-806a413f-9bc6-5f66-958f-fb6f6d7f3f3c" class="er entityLabel">CommsBanner</text><rect height="22.091797828674316" width="46.875" y="24" x="0" class="er attributeBoxOdd"/><text style="dominant-baseline: middle; font-size: 10.2px;" transform="translate(5,35.04589891433716)" y="0" x="0" id="text-entity-CommsBanner-806a413f-9bc6-5f66-958f-fb6f6d7f3f3c-attr-1-type" class="er entityLabel">string</text><rect height="22.091797828674316" width="45.328125" y="24" x="46.875" class="er attributeBoxOdd"/><text style="dominant-baseline: middle; font-size: 10.2px;" transform="translate(51.875,35.04589891433716)" y="0" x="0" id="text-entity-CommsBanner-806a413f-9bc6-5f66-958f-fb6f6d7f3f3c-attr-1-name" class="er entityLabel">name</text><rect height="22.091797828674316" width="21.5625" y="24" x="92.203125" class="er attributeBoxOdd"/><text style="dominant-baseline: middle; font-size: 10.2px;" transform="translate(97.203125,35.04589891433716)" y="0" x="0" id="text-entity-CommsBanner-806a413f-9bc6-5f66-958f-fb6f6d7f3f3c-attr-1-key" class="er entityLabel">PK</text><rect height="22.091797828674316" width="162.515625" y="24" x="113.765625" class="er attributeBoxOdd"/><text style="dominant-baseline: middle; font-size: 10.2px;" transform="translate(118.765625,35.04589891433716)" y="0" x="0" id="text-entity-CommsBanner-806a413f-9bc6-5f66-958f-fb6f6d7f3f3c-attr-1-comment" class="er entityLabel"/><rect height="22.091797828674316" width="46.875" y="46.091797828674316" x="0" class="er attributeBoxEven"/><text style="dominant-baseline: middle; font-size: 10.2px;" transform="translate(5,57.137696743011475)" y="0" x="0" id="text-entity-CommsBanner-806a413f-9bc6-5f66-958f-fb6f6d7f3f3c-attr-2-type" class="er entityLabel">string</text><rect height="22.091797828674316" width="45.328125" y="46.091797828674316" x="46.875" class="er attributeBoxEven"/><text style="dominant-baseline: middle; font-size: 10.2px;" transform="translate(51.875,57.137696743011475)" y="0" x="0" id="text-entity-CommsBanner-806a413f-9bc6-5f66-958f-fb6f6d7f3f3c-attr-2-name" class="er entityLabel">title</text><rect height="22.091797828674316" width="21.5625" y="46.091797828674316" x="92.203125" class="er attributeBoxEven"/><text style="dominant-baseline: middle; font-size: 10.2px;" transform="translate(97.203125,57.137696743011475)" y="0" x="0" id="text-entity-CommsBanner-806a413f-9bc6-5f66-958f-fb6f6d7f3f3c-attr-2-key" class="er entityLabel"/><rect height="22.091797828674316" width="162.515625" y="46.091797828674316" x="113.765625" class="er attributeBoxEven"/><text style="dominant-baseline: middle; font-size: 10.2px;" transform="translate(118.765625,57.137696743011475)" y="0" x="0" id="text-entity-CommsBanner-806a413f-9bc6-5f66-958f-fb6f6d7f3f3c-attr-2-comment" class="er entityLabel"/><rect height="22.091797828674316" width="46.875" y="68.18359565734863" x="0" class="er attributeBoxOdd"/><text style="dominant-baseline: middle; font-size: 10.2px;" transform="translate(5,79.22949457168579)" y="0" x="0" id="text-entity-CommsBanner-806a413f-9bc6-5f66-958f-fb6f6d7f3f3c-attr-3-type" class="er entityLabel">asset</text><rect height="22.091797828674316" width="45.328125" y="68.18359565734863" x="46.875" class="er attributeBoxOdd"/><text style="dominant-baseline: middle; font-size: 10.2px;" transform="translate(51.875,79.22949457168579)" y="0" x="0" id="text-entity-CommsBanner-806a413f-9bc6-5f66-958f-fb6f6d7f3f3c-attr-3-name" class="er entityLabel">image</text><rect height="22.091797828674316" width="21.5625" y="68.18359565734863" x="92.203125" class="er attributeBoxOdd"/><text style="dominant-baseline: middle; font-size: 10.2px;" transform="translate(97.203125,79.22949457168579)" y="0" x="0" id="text-entity-CommsBanner-806a413f-9bc6-5f66-958f-fb6f6d7f3f3c-attr-3-key" class="er entityLabel"/><rect height="22.091797828674316" width="162.515625" y="68.18359565734863" x="113.765625" class="er attributeBoxOdd"/><text style="dominant-baseline: middle; font-size: 10.2px;" transform="translate(118.765625,79.22949457168579)" y="0" x="0" id="text-entity-CommsBanner-806a413f-9bc6-5f66-958f-fb6f6d7f3f3c-attr-3-comment" class="er entityLabel"/><rect height="22.091797828674316" width="46.875" y="90.27539348602295" x="0" class="er attributeBoxEven"/><text style="dominant-baseline: middle; font-size: 10.2px;" transform="translate(5,101.32129240036011)" y="0" x="0" id="text-entity-CommsBanner-806a413f-9bc6-5f66-958f-fb6f6d7f3f3c-attr-4-type" class="er entityLabel">string</text><rect height="22.091797828674316" width="45.328125" y="90.27539348602295" x="46.875" class="er attributeBoxEven"/><text style="dominant-baseline: middle; font-size: 10.2px;" transform="translate(51.875,101.32129240036011)" y="0" x="0" id="text-entity-CommsBanner-806a413f-9bc6-5f66-958f-fb6f6d7f3f3c-attr-4-name" class="er entityLabel">type</text><rect height="22.091797828674316" width="21.5625" y="90.27539348602295" x="92.203125" class="er attributeBoxEven"/><text style="dominant-baseline: middle; font-size: 10.2px;" transform="translate(97.203125,101.32129240036011)" y="0" x="0" id="text-entity-CommsBanner-806a413f-9bc6-5f66-958f-fb6f6d7f3f3c-attr-4-key" class="er entityLabel"/><rect height="22.091797828674316" width="162.515625" y="90.27539348602295" x="113.765625" class="er attributeBoxEven"/><text style="dominant-baseline: middle; font-size: 10.2px;" transform="translate(118.765625,101.32129240036011)" y="0" x="0" id="text-entity-CommsBanner-806a413f-9bc6-5f66-958f-fb6f6d7f3f3c-attr-4-comment" class="er entityLabel">one of info, warning, error, blank</text><rect height="22" width="46.875" y="112.36719131469727" x="0" class="er attributeBoxOdd"/><text style="dominant-baseline: middle; font-size: 10.2px;" transform="translate(5,123.36719131469727)" y="0" x="0" id="text-entity-CommsBanner-806a413f-9bc6-5f66-958f-fb6f6d7f3f3c-attr-5-type" class="er entityLabel">richText</text><rect height="22" width="45.328125" y="112.36719131469727" x="46.875" class="er attributeBoxOdd"/><text style="dominant-baseline: middle; font-size: 10.2px;" transform="translate(51.875,123.36719131469727)" y="0" x="0" id="text-entity-CommsBanner-806a413f-9bc6-5f66-958f-fb6f6d7f3f3c-attr-5-name" class="er entityLabel">content</text><rect height="22" width="21.5625" y="112.36719131469727" x="92.203125" class="er attributeBoxOdd"/><text style="dominant-baseline: middle; font-size: 10.2px;" transform="translate(97.203125,123.36719131469727)" y="0" x="0" id="text-entity-CommsBanner-806a413f-9bc6-5f66-958f-fb6f6d7f3f3c-attr-5-key" class="er entityLabel"/><rect height="22" width="162.515625" y="112.36719131469727" x="113.765625" class="er attributeBoxOdd"/><text style="dominant-baseline: middle; font-size: 10.2px;" transform="translate(118.765625,123.36719131469727)" y="0" x="0" id="text-entity-CommsBanner-806a413f-9bc6-5f66-958f-fb6f6d7f3f3c-attr-5-comment" class="er entityLabel"/></g><g transform="translate(20,510.826171875 )" id="entity-MetaSeo-9a3d74c9-0464-58a7-bc38-e0cd52fa1e8d"><rect height="200.7343807220459" width="118.296875" y="0" x="0" class="er entityBox"/><text style="dominant-baseline: middle; text-anchor: middle; font-size: 12px;" transform="translate(59.1484375,12)" y="0" x="0" id="text-entity-MetaSeo-9a3d74c9-0464-58a7-bc38-e0cd52fa1e8d" class="er entityLabel">MetaSeo</text><rect height="22.091797828674316" width="35.75" y="24" x="0" class="er attributeBoxOdd"/><text style="dominant-baseline: middle; font-size: 10.2px;" transform="translate(5,35.04589891433716)" y="0" x="0" id="text-entity-MetaSeo-9a3d74c9-0464-58a7-bc38-e0cd52fa1e8d-attr-1-type" class="er entityLabel">string</text><rect height="22.091797828674316" width="60.984375" y="24" x="35.75" class="er attributeBoxOdd"/><text style="dominant-baseline: middle; font-size: 10.2px;" transform="translate(40.75,35.04589891433716)" y="0" x="0" id="text-entity-MetaSeo-9a3d74c9-0464-58a7-bc38-e0cd52fa1e8d-attr-1-name" class="er entityLabel">name</text><rect height="22.091797828674316" width="21.5625" y="24" x="96.734375" class="er attributeBoxOdd"/><text style="dominant-baseline: middle; font-size: 10.2px;" transform="translate(101.734375,35.04589891433716)" y="0" x="0" id="text-entity-MetaSeo-9a3d74c9-0464-58a7-bc38-e0cd52fa1e8d-attr-1-key" class="er entityLabel">PK</text><rect height="22.091797828674316" width="35.75" y="46.091797828674316" x="0" class="er attributeBoxEven"/><text style="dominant-baseline: middle; font-size: 10.2px;" transform="translate(5,57.137696743011475)" y="0" x="0" id="text-entity-MetaSeo-9a3d74c9-0464-58a7-bc38-e0cd52fa1e8d-attr-2-type" class="er entityLabel">string</text><rect height="22.091797828674316" width="60.984375" y="46.091797828674316" x="35.75" class="er attributeBoxEven"/><text style="dominant-baseline: middle; font-size: 10.2px;" transform="translate(40.75,57.137696743011475)" y="0" x="0" id="text-entity-MetaSeo-9a3d74c9-0464-58a7-bc38-e0cd52fa1e8d-attr-2-name" class="er entityLabel">title</text><rect height="22.091797828674316" width="21.5625" y="46.091797828674316" x="96.734375" class="er attributeBoxEven"/><text style="dominant-baseline: middle; font-size: 10.2px;" transform="translate(101.734375,57.137696743011475)" y="0" x="0" id="text-entity-MetaSeo-9a3d74c9-0464-58a7-bc38-e0cd52fa1e8d-attr-2-key" class="er entityLabel"/><rect height="22.091797828674316" width="35.75" y="68.18359565734863" x="0" class="er attributeBoxOdd"/><text style="dominant-baseline: middle; font-size: 10.2px;" transform="translate(5,79.22949457168579)" y="0" x="0" id="text-entity-MetaSeo-9a3d74c9-0464-58a7-bc38-e0cd52fa1e8d-attr-3-type" class="er entityLabel">asset</text><rect height="22.091797828674316" width="60.984375" y="68.18359565734863" x="35.75" class="er attributeBoxOdd"/><text style="dominant-baseline: middle; font-size: 10.2px;" transform="translate(40.75,79.22949457168579)" y="0" x="0" id="text-entity-MetaSeo-9a3d74c9-0464-58a7-bc38-e0cd52fa1e8d-attr-3-name" class="er entityLabel">image</text><rect height="22.091797828674316" width="21.5625" y="68.18359565734863" x="96.734375" class="er attributeBoxOdd"/><text style="dominant-baseline: middle; font-size: 10.2px;" transform="translate(101.734375,79.22949457168579)" y="0" x="0" id="text-entity-MetaSeo-9a3d74c9-0464-58a7-bc38-e0cd52fa1e8d-attr-3-key" class="er entityLabel"/><rect height="22.091796875" width="35.75" y="90.27539348602295" x="0" class="er attributeBoxEven"/><text style="dominant-baseline: middle; font-size: 10.2px;" transform="translate(5,101.32129192352295)" y="0" x="0" id="text-entity-MetaSeo-9a3d74c9-0464-58a7-bc38-e0cd52fa1e8d-attr-4-type" class="er entityLabel">text</text><rect height="22.091796875" width="60.984375" y="90.27539348602295" x="35.75" class="er attributeBoxEven"/><text style="dominant-baseline: middle; font-size: 10.2px;" transform="translate(40.75,101.32129192352295)" y="0" x="0" id="text-entity-MetaSeo-9a3d74c9-0464-58a7-bc38-e0cd52fa1e8d-attr-4-name" class="er entityLabel">description</text><rect height="22.091796875" width="21.5625" y="90.27539348602295" x="96.734375" class="er attributeBoxEven"/><text style="dominant-baseline: middle; font-size: 10.2px;" transform="translate(101.734375,101.32129192352295)" y="0" x="0" id="text-entity-MetaSeo-9a3d74c9-0464-58a7-bc38-e0cd52fa1e8d-attr-4-key" class="er entityLabel"/><rect height="22.091797828674316" width="35.75" y="112.36719036102295" x="0" class="er attributeBoxOdd"/><text style="dominant-baseline: middle; font-size: 10.2px;" transform="translate(5,123.41308927536011)" y="0" x="0" id="text-entity-MetaSeo-9a3d74c9-0464-58a7-bc38-e0cd52fa1e8d-attr-5-type" class="er entityLabel">string</text><rect height="22.091797828674316" width="60.984375" y="112.36719036102295" x="35.75" class="er attributeBoxOdd"/><text style="dominant-baseline: middle; font-size: 10.2px;" transform="translate(40.75,123.41308927536011)" y="0" x="0" id="text-entity-MetaSeo-9a3d74c9-0464-58a7-bc38-e0cd52fa1e8d-attr-5-name" class="er entityLabel">name</text><rect height="22.091797828674316" width="21.5625" y="112.36719036102295" x="96.734375" class="er attributeBoxOdd"/><text style="dominant-baseline: middle; font-size: 10.2px;" transform="translate(101.734375,123.41308927536011)" y="0" x="0" id="text-entity-MetaSeo-9a3d74c9-0464-58a7-bc38-e0cd52fa1e8d-attr-5-key" class="er entityLabel">PK</text><rect height="22.091797828674316" width="35.75" y="134.45898818969727" x="0" class="er attributeBoxEven"/><text style="dominant-baseline: middle; font-size: 10.2px;" transform="translate(5,145.50488710403442)" y="0" x="0" id="text-entity-MetaSeo-9a3d74c9-0464-58a7-bc38-e0cd52fa1e8d-attr-6-type" class="er entityLabel">string</text><rect height="22.091797828674316" width="60.984375" y="134.45898818969727" x="35.75" class="er attributeBoxEven"/><text style="dominant-baseline: middle; font-size: 10.2px;" transform="translate(40.75,145.50488710403442)" y="0" x="0" id="text-entity-MetaSeo-9a3d74c9-0464-58a7-bc38-e0cd52fa1e8d-attr-6-name" class="er entityLabel">title</text><rect height="22.091797828674316" width="21.5625" y="134.45898818969727" x="96.734375" class="er attributeBoxEven"/><text style="dominant-baseline: middle; font-size: 10.2px;" transform="translate(101.734375,145.50488710403442)" y="0" x="0" id="text-entity-MetaSeo-9a3d74c9-0464-58a7-bc38-e0cd52fa1e8d-attr-6-key" class="er entityLabel"/><rect height="22.091797828674316" width="35.75" y="156.55078601837158" x="0" class="er attributeBoxOdd"/><text style="dominant-baseline: middle; font-size: 10.2px;" transform="translate(5,167.59668493270874)" y="0" x="0" id="text-entity-MetaSeo-9a3d74c9-0464-58a7-bc38-e0cd52fa1e8d-attr-7-type" class="er entityLabel">asset</text><rect height="22.091797828674316" width="60.984375" y="156.55078601837158" x="35.75" class="er attributeBoxOdd"/><text style="dominant-baseline: middle; font-size: 10.2px;" transform="translate(40.75,167.59668493270874)" y="0" x="0" id="text-entity-MetaSeo-9a3d74c9-0464-58a7-bc38-e0cd52fa1e8d-attr-7-name" class="er entityLabel">image</text><rect height="22.091797828674316" width="21.5625" y="156.55078601837158" x="96.734375" class="er attributeBoxOdd"/><text style="dominant-baseline: middle; font-size: 10.2px;" transform="translate(101.734375,167.59668493270874)" y="0" x="0" id="text-entity-MetaSeo-9a3d74c9-0464-58a7-bc38-e0cd52fa1e8d-attr-7-key" class="er entityLabel"/><rect height="22.091796875" width="35.75" y="178.6425838470459" x="0" class="er attributeBoxEven"/><text style="dominant-baseline: middle; font-size: 10.2px;" transform="translate(5,189.6884822845459)" y="0" x="0" id="text-entity-MetaSeo-9a3d74c9-0464-58a7-bc38-e0cd52fa1e8d-attr-8-type" class="er entityLabel">text</text><rect height="22.091796875" width="60.984375" y="178.6425838470459" x="35.75" class="er attributeBoxEven"/><text style="dominant-baseline: middle; font-size: 10.2px;" transform="translate(40.75,189.6884822845459)" y="0" x="0" id="text-entity-MetaSeo-9a3d74c9-0464-58a7-bc38-e0cd52fa1e8d-attr-8-name" class="er entityLabel">description</text><rect height="22.091796875" width="21.5625" y="178.6425838470459" x="96.734375" class="er attributeBoxEven"/><text style="dominant-baseline: middle; font-size: 10.2px;" transform="translate(101.734375,189.6884822845459)" y="0" x="0" id="text-entity-MetaSeo-9a3d74c9-0464-58a7-bc38-e0cd52fa1e8d-attr-8-key" class="er entityLabel"/></g><g transform="translate(238.296875,573.693359375 )" id="entity-HomepageLayout-dbe8bb8e-ada0-5546-b925-9370ed192fdd"><rect height="75" width="122.421875" y="0" x="0" class="er entityBox"/><text style="dominant-baseline: middle; text-anchor: middle; font-size: 12px;" transform="translate(61.2109375,37.5)" y="0" x="0" id="text-entity-HomepageLayout-dbe8bb8e-ada0-5546-b925-9370ed192fdd" class="er entityLabel">HomepageLayout</text></g><g transform="translate(460.71875,573.693359375 )" id="entity-PrimaryLandingPage-64db09d4-64e2-5685-a88d-b923bad6f60e"><rect height="75" width="137.703125" y="0" x="0" class="er entityBox"/><text style="dominant-baseline: middle; text-anchor: middle; font-size: 12px;" transform="translate(68.8515625,37.5)" y="0" x="0" id="text-entity-PrimaryLandingPage-64db09d4-64e2-5685-a88d-b923bad6f60e" class="er entityLabel">PrimaryLandingPage</text></g><g transform="translate(698.421875,573.693359375 )" id="entity-SecondaryLandingPage-97bc6bf4-97c4-584f-b599-1f3acc5dfe7d"><rect height="75" width="151.453125" y="0" x="0" class="er entityBox"/><text style="dominant-baseline: middle; text-anchor: middle; font-size: 12px;" transform="translate(75.7265625,37.5)" y="0" x="0" id="text-entity-SecondaryLandingPage-97bc6bf4-97c4-584f-b599-1f3acc5dfe7d" class="er entityLabel">SecondaryLandingPage</text></g><g transform="translate(949.875,573.693359375 )" id="entity-BasicContentPage-ccd77d0f-becb-51b3-ba39-e447fdf9723f"><rect height="75" width="125.109375" y="0" x="0" class="er entityBox"/><text style="dominant-baseline: middle; text-anchor: middle; font-size: 12px;" transform="translate(62.5546875,37.5)" y="0" x="0" id="text-entity-BasicContentPage-ccd77d0f-becb-51b3-ba39-e447fdf9723f" class="er entityLabel">BasicContentPage</text></g><rect height="14" width="71.015625" y="303.55078125" x="1244.6588134765625" class="er relationshipLabelBox"/><text style="text-anchor: middle; dominant-baseline: middle; font-size: 12px;" y="310.55078125" x="1280.1666259765625" id="rel1" class="er relationshipLabel">is Subpage of</text><rect height="14" width="44.84375" y="131.73968505859375" x="746.3863525390625" class="er relationshipLabelBox"/><text style="text-anchor: middle; dominant-baseline: middle; font-size: 12px;" y="138.73968505859375" x="768.8082275390625" id="rel2" class="er relationshipLabel">contains</text><rect height="14" width="44.84375" y="199.35238647460938" x="1369.0775146484375" class="er relationshipLabelBox"/><text style="text-anchor: middle; dominant-baseline: middle; font-size: 12px;" y="206.35238647460938" x="1391.4993896484375" id="rel3" class="er relationshipLabel">contains</text><rect height="14" width="57.3125" y="395.62774658203125" x="296.9278869628906" class="er relationshipLabelBox"/><text style="text-anchor: middle; dominant-baseline: middle; font-size: 12px;" y="402.62774658203125" x="325.5841369628906" id="rel4" class="er relationshipLabel">references</text><rect height="14" width="57.3125" y="417.6026306152344" x="382.9530334472656" class="er relationshipLabelBox"/><text style="text-anchor: middle; dominant-baseline: middle; font-size: 12px;" y="424.6026306152344" x="411.6092834472656" id="rel5" class="er relationshipLabel">references</text><rect height="14" width="57.3125" y="469.3106994628906" x="510.016357421875" class="er relationshipLabelBox"/><text style="text-anchor: middle; dominant-baseline: middle; font-size: 12px;" y="476.3106994628906" x="538.672607421875" id="rel6" class="er relationshipLabel">references</text><rect height="14" width="57.3125" y="483.44549560546875" x="743.5910034179688" class="er relationshipLabelBox"/><text style="text-anchor: middle; dominant-baseline: middle; font-size: 12px;" y="490.44549560546875" x="772.2472534179688" id="rel7" class="er relationshipLabel">references</text><rect height="14" width="57.3125" y="429.7563781738281" x="917.6914672851562" class="er relationshipLabelBox"/><text style="text-anchor: middle; dominant-baseline: middle; font-size: 12px;" y="436.7563781738281" x="946.3477172851562" id="rel8" class="er relationshipLabel">references</text><rect height="14" width="57.3125" y="406.50323486328125" x="1047.469970703125" class="er relationshipLabelBox"/><text style="text-anchor: middle; dominant-baseline: middle; font-size: 12px;" y="413.50323486328125" x="1076.126220703125" id="rel9" class="er relationshipLabel">references</text><style>.error-icon {
  fill:#552222;
 }

.error-text {
  fill:#552222;
  stroke:#552222;
 }

.edge-thickness-normal {
  stroke-width:2px;
 }

.edge-thickness-thick {
  stroke-width:3.5px;
 }

.edge-pattern-solid {
  stroke-dasharray:0;
 }

.edge-pattern-dashed {
  stroke-dasharray:3;
 }

.edge-pattern-dotted {
  stroke-dasharray:2;
 }

.marker {
  fill:#333333;
  stroke:#333333;
 }

.marker.cross {
  stroke:#333333;
 }

svg {
  font-family:"trebuchet ms",verdana,arial,sans-serif;
  font-size:16px;
 }

.entityBox {
  fill: var(--main-blue) !important;
  color: #fff !important;
  stroke: var(--main-blue) !important;
 }

 g .entityLabel:first-of-type {
  fill: #fff !important;
 }

.attributeBoxOdd {
  fill:#ffffff;
 stroke: var(--main-blue) !important;
 }

.attributeBoxEven {
  fill: rgb(229, 255, 255) !important;
  stroke: var(--main-blue) !important;
 }

.relationshipLabelBox {
  fill:hsl(196, 100%, 90%) !important;
  opacity:0.7;
 }

.relationshipLabelBox rect {
  opacity:0.5;
 }

.relationshipLine {
  stroke:#333333;
 }

.entityTitleText {
  text-anchor:middle;
  font-size:18px;
  color: #fff !important;
 }

:root {
  --mermaid-font-family:"trebuchet ms",verdana,arial,sans-serif;
 --main-blue: #00aeef;
 --main-purple: rgb(133, 38, 255);
}

</style></svg>