<svg aria-roledescription="er" role="graphics-document document" viewBox="0 0 1030.59375 665.28515625" style="max-width: 1030.59px; background-color: transparent;" xmlns:xlink="http://www.w3.org/1999/xlink" xmlns="http://www.w3.org/2000/svg" width="100%" id="mermaid-1680191186680"><style>#mermaid-1680191186680{font-family:"trebuchet ms",verdana,arial,sans-serif;font-size:16px;fill:#333;}#mermaid-1680191186680 .error-icon{fill:#552222;}#mermaid-1680191186680 .error-text{fill:#552222;stroke:#552222;}#mermaid-1680191186680 .edge-thickness-normal{stroke-width:2px;}#mermaid-1680191186680 .edge-thickness-thick{stroke-width:3.5px;}#mermaid-1680191186680 .edge-pattern-solid{stroke-dasharray:0;}#mermaid-1680191186680 .edge-pattern-dashed{stroke-dasharray:3;}#mermaid-1680191186680 .edge-pattern-dotted{stroke-dasharray:2;}#mermaid-1680191186680 .marker{fill:#333333;stroke:#333333;}#mermaid-1680191186680 .marker.cross{stroke:#333333;}#mermaid-1680191186680 svg{font-family:"trebuchet ms",verdana,arial,sans-serif;font-size:16px;}#mermaid-1680191186680 .entityBox{fill:#ECECFF;stroke:#9370DB;}#mermaid-1680191186680 .attributeBoxOdd{fill:#ffffff;stroke:#9370DB;}#mermaid-1680191186680 .attributeBoxEven{fill:#f2f2f2;stroke:#9370DB;}#mermaid-1680191186680 .relationshipLabelBox{fill:hsl(80, 100%, 96.2745098039%);opacity:0.7;background-color:hsl(80, 100%, 96.2745098039%);}#mermaid-1680191186680 .relationshipLabelBox rect{opacity:0.5;}#mermaid-1680191186680 .relationshipLine{stroke:#333333;}#mermaid-1680191186680 .entityTitleText{text-anchor:middle;font-size:18px;fill:#333;}#mermaid-1680191186680 :root{--mermaid-font-family:"trebuchet ms",verdana,arial,sans-serif;}</style><g/><defs><marker orient="auto" markerHeight="18" markerWidth="18" refY="9" refX="0" id="ONLY_ONE_START"><path d="M9,0 L9,18 M15,0 L15,18" fill="none" stroke="gray"/></marker></defs><defs><marker orient="auto" markerHeight="18" markerWidth="18" refY="9" refX="18" id="ONLY_ONE_END"><path d="M3,0 L3,18 M9,0 L9,18" fill="none" stroke="gray"/></marker></defs><defs><marker orient="auto" markerHeight="18" markerWidth="30" refY="9" refX="0" id="ZERO_OR_ONE_START"><circle r="6" cy="9" cx="21" fill="white" stroke="gray"/><path d="M9,0 L9,18" fill="none" stroke="gray"/></marker></defs><defs><marker orient="auto" markerHeight="18" markerWidth="30" refY="9" refX="30" id="ZERO_OR_ONE_END"><circle r="6" cy="9" cx="9" fill="white" stroke="gray"/><path d="M21,0 L21,18" fill="none" stroke="gray"/></marker></defs><defs><marker orient="auto" markerHeight="36" markerWidth="45" refY="18" refX="18" id="ONE_OR_MORE_START"><path d="M0,18 Q 18,0 36,18 Q 18,36 0,18 M42,9 L42,27" fill="none" stroke="gray"/></marker></defs><defs><marker orient="auto" markerHeight="36" markerWidth="45" refY="18" refX="27" id="ONE_OR_MORE_END"><path d="M3,9 L3,27 M9,18 Q27,0 45,18 Q27,36 9,18" fill="none" stroke="gray"/></marker></defs><defs><marker orient="auto" markerHeight="36" markerWidth="57" refY="18" refX="18" id="ZERO_OR_MORE_START"><circle r="6" cy="18" cx="48" fill="white" stroke="gray"/><path d="M0,18 Q18,0 36,18 Q18,36 0,18" fill="none" stroke="gray"/></marker></defs><defs><marker orient="auto" markerHeight="36" markerWidth="57" refY="18" refX="39" id="ZERO_OR_MORE_END"><circle r="6" cy="18" cx="9" fill="white" stroke="gray"/><path d="M21,18 Q39,0 57,18 Q39,36 21,18" fill="none" stroke="gray"/></marker></defs><path style="stroke: gray; fill: none;" marker-start="url(#ONLY_ONE_START)" marker-end="url(#ONE_OR_MORE_END)" d="M592.8359375,226.1277493127776L604.5026041666666,219.80372338564803C616.1692708333334,213.47969745851842,639.5026041666666,200.8316456042592,654.0859375,194.5076196771296C668.6692708333334,188.18359375,674.5026041666666,188.18359375,680.3359375,201.21419270833334C686.1692708333334,214.24479166666666,692.0026041666666,240.30598958333334,692.0026041666666,266.3671875C692.0026041666666,292.4283854166667,686.1692708333334,318.4895833333333,680.3359375,331.5201822916667C674.5026041666666,344.55078125,668.6692708333334,344.55078125,654.0859375,338.22675532287036C639.5026041666666,331.9027293957408,616.1692708333334,319.2546775414816,604.5026041666666,312.930651614352L592.8359375,306.6066256872224" class="er relationshipLine"/><path style="stroke: gray; fill: none;" marker-start="url(#ONLY_ONE_START)" marker-end="url(#ONE_OR_MORE_END)" d="M518.6015625,88.18359375L518.6015625,96.51692708333333C518.6015625,104.85026041666667,518.6015625,121.51692708333333,518.6015625,138.18359375C518.6015625,154.85026041666666,518.6015625,171.51692708333334,518.6015625,179.85026041666666L518.6015625,188.18359375" class="er relationshipLine"/><path style="stroke: gray; fill: none;" marker-start="url(#ONLY_ONE_START)" marker-end="url(#ONLY_ONE_END)" d="M444.3671875,288.02052986111113L383.4973958333333,305.77557175925926C322.6276041666667,323.5306136574074,200.88802083333334,359.0406974537037,140.01822916666666,385.1290726851851C79.1484375,411.2174479166667,79.1484375,427.8841145833333,79.1484375,436.2174479166667L79.1484375,444.55078125" class="er relationshipLine"/><path style="stroke: gray; fill: none;" marker-start="url(#ONLY_ONE_START)" marker-end="url(#ZERO_OR_ONE_END)" d="M444.3671875,309.7989557146805L420.2239583333333,323.9242599705671C396.0807291666667,338.0495642264537,347.7942708333333,366.3001727382268,323.6510416666667,399.23667491078004C299.5078125,432.1731770833333,299.5078125,469.7955729166667,299.5078125,488.6067708333333L299.5078125,507.41796875" class="er relationshipLine"/><path style="stroke: gray; fill: none;" marker-start="url(#ONLY_ONE_START)" marker-end="url(#ZERO_OR_ONE_END)" d="M518.6015625,344.55078125L518.6015625,352.8841145833333C518.6015625,361.2174479166667,518.6015625,377.8841145833333,518.6015625,405.0286458333333C518.6015625,432.1731770833333,518.6015625,469.7955729166667,518.6015625,488.6067708333333L518.6015625,507.41796875" class="er relationshipLine"/><path style="stroke: gray; fill: none;" marker-start="url(#ONLY_ONE_START)" marker-end="url(#ZERO_OR_ONE_END)" d="M592.8359375,308.67062275328215L617.953125,322.98398250273516C643.0703125,337.2973422521881,693.3046875,365.9240617510941,718.421875,399.04861941721373C743.5390625,432.1731770833333,743.5390625,469.7955729166667,743.5390625,488.6067708333333L743.5390625,507.41796875" class="er relationshipLine"/><path style="stroke: gray; fill: none;" marker-start="url(#ONLY_ONE_START)" marker-end="url(#ZERO_OR_ONE_END)" d="M592.8359375,287.8961403557225L654.12890625,305.67191383810206C715.421875,323.44768732048163,838.0078125,358.99923428524085,899.30078125,395.58620568428705C960.59375,432.1731770833333,960.59375,469.7955729166667,960.59375,488.6067708333333L960.59375,507.41796875" class="er relationshipLine"/><g transform="translate(444.3671875,188.18359375 )" id="entity-Page-7a725333-9963-54c6-94fb-e69f5a16bdeb"><rect height="156.36719036102295" width="148.46875" y="0" x="0" class="er entityBox"/><text style="dominant-baseline: middle; text-anchor: middle; font-size: 12px;" transform="translate(74.234375,12)" y="0" x="0" id="text-entity-Page-7a725333-9963-54c6-94fb-e69f5a16bdeb" class="er entityLabel">Page</text><rect height="22.091797828674316" width="54.578125" y="24" x="0" class="er attributeBoxOdd"/><text style="dominant-baseline: middle; font-size: 10.2px;" transform="translate(5,35.04589891433716)" y="0" x="0" id="text-entity-Page-7a725333-9963-54c6-94fb-e69f5a16bdeb-attr-1-type" class="er entityLabel">string</text><rect height="22.091797828674316" width="72.328125" y="24" x="54.578125" class="er attributeBoxOdd"/><text style="dominant-baseline: middle; font-size: 10.2px;" transform="translate(59.578125,35.04589891433716)" y="0" x="0" id="text-entity-Page-7a725333-9963-54c6-94fb-e69f5a16bdeb-attr-1-name" class="er entityLabel">name</text><rect height="22.091797828674316" width="21.5625" y="24" x="126.90625" class="er attributeBoxOdd"/><text style="dominant-baseline: middle; font-size: 10.2px;" transform="translate(131.90625,35.04589891433716)" y="0" x="0" id="text-entity-Page-7a725333-9963-54c6-94fb-e69f5a16bdeb-attr-1-key" class="er entityLabel">PK</text><rect height="22.091797828674316" width="54.578125" y="46.091797828674316" x="0" class="er attributeBoxEven"/><text style="dominant-baseline: middle; font-size: 10.2px;" transform="translate(5,57.137696743011475)" y="0" x="0" id="text-entity-Page-7a725333-9963-54c6-94fb-e69f5a16bdeb-attr-2-type" class="er entityLabel">string</text><rect height="22.091797828674316" width="72.328125" y="46.091797828674316" x="54.578125" class="er attributeBoxEven"/><text style="dominant-baseline: middle; font-size: 10.2px;" transform="translate(59.578125,57.137696743011475)" y="0" x="0" id="text-entity-Page-7a725333-9963-54c6-94fb-e69f5a16bdeb-attr-2-name" class="er entityLabel">title</text><rect height="22.091797828674316" width="21.5625" y="46.091797828674316" x="126.90625" class="er attributeBoxEven"/><text style="dominant-baseline: middle; font-size: 10.2px;" transform="translate(131.90625,57.137696743011475)" y="0" x="0" id="text-entity-Page-7a725333-9963-54c6-94fb-e69f5a16bdeb-attr-2-key" class="er entityLabel"/><rect height="22.091797828674316" width="54.578125" y="68.18359565734863" x="0" class="er attributeBoxOdd"/><text style="dominant-baseline: middle; font-size: 10.2px;" transform="translate(5,79.22949457168579)" y="0" x="0" id="text-entity-Page-7a725333-9963-54c6-94fb-e69f5a16bdeb-attr-3-type" class="er entityLabel">string</text><rect height="22.091797828674316" width="72.328125" y="68.18359565734863" x="54.578125" class="er attributeBoxOdd"/><text style="dominant-baseline: middle; font-size: 10.2px;" transform="translate(59.578125,79.22949457168579)" y="0" x="0" id="text-entity-Page-7a725333-9963-54c6-94fb-e69f5a16bdeb-attr-3-name" class="er entityLabel">slug</text><rect height="22.091797828674316" width="21.5625" y="68.18359565734863" x="126.90625" class="er attributeBoxOdd"/><text style="dominant-baseline: middle; font-size: 10.2px;" transform="translate(131.90625,79.22949457168579)" y="0" x="0" id="text-entity-Page-7a725333-9963-54c6-94fb-e69f5a16bdeb-attr-3-key" class="er entityLabel"/><rect height="22" width="54.578125" y="90.27539348602295" x="0" class="er attributeBoxEven"/><text style="dominant-baseline: middle; font-size: 10.2px;" transform="translate(5,101.27539348602295)" y="0" x="0" id="text-entity-Page-7a725333-9963-54c6-94fb-e69f5a16bdeb-attr-4-type" class="er entityLabel">bool</text><rect height="22" width="72.328125" y="90.27539348602295" x="54.578125" class="er attributeBoxEven"/><text style="dominant-baseline: middle; font-size: 10.2px;" transform="translate(59.578125,101.27539348602295)" y="0" x="0" id="text-entity-Page-7a725333-9963-54c6-94fb-e69f5a16bdeb-attr-4-name" class="er entityLabel">isVisibleInNav</text><rect height="22" width="21.5625" y="90.27539348602295" x="126.90625" class="er attributeBoxEven"/><text style="dominant-baseline: middle; font-size: 10.2px;" transform="translate(131.90625,101.27539348602295)" y="0" x="0" id="text-entity-Page-7a725333-9963-54c6-94fb-e69f5a16bdeb-attr-4-key" class="er entityLabel"/><rect height="22.091796875" width="54.578125" y="112.27539348602295" x="0" class="er attributeBoxOdd"/><text style="dominant-baseline: middle; font-size: 10.2px;" transform="translate(5,123.32129192352295)" y="0" x="0" id="text-entity-Page-7a725333-9963-54c6-94fb-e69f5a16bdeb-attr-5-type" class="er entityLabel">reference</text><rect height="22.091796875" width="72.328125" y="112.27539348602295" x="54.578125" class="er attributeBoxOdd"/><text style="dominant-baseline: middle; font-size: 10.2px;" transform="translate(59.578125,123.32129192352295)" y="0" x="0" id="text-entity-Page-7a725333-9963-54c6-94fb-e69f5a16bdeb-attr-5-name" class="er entityLabel">template</text><rect height="22.091796875" width="21.5625" y="112.27539348602295" x="126.90625" class="er attributeBoxOdd"/><text style="dominant-baseline: middle; font-size: 10.2px;" transform="translate(131.90625,123.32129192352295)" y="0" x="0" id="text-entity-Page-7a725333-9963-54c6-94fb-e69f5a16bdeb-attr-5-key" class="er entityLabel"/><rect height="22" width="54.578125" y="134.36719036102295" x="0" class="er attributeBoxEven"/><text style="dominant-baseline: middle; font-size: 10.2px;" transform="translate(5,145.36719036102295)" y="0" x="0" id="text-entity-Page-7a725333-9963-54c6-94fb-e69f5a16bdeb-attr-6-type" class="er entityLabel">metaSeo</text><rect height="22" width="72.328125" y="134.36719036102295" x="54.578125" class="er attributeBoxEven"/><text style="dominant-baseline: middle; font-size: 10.2px;" transform="translate(59.578125,145.36719036102295)" y="0" x="0" id="text-entity-Page-7a725333-9963-54c6-94fb-e69f5a16bdeb-attr-6-name" class="er entityLabel">meta</text><rect height="22" width="21.5625" y="134.36719036102295" x="126.90625" class="er attributeBoxEven"/><text style="dominant-baseline: middle; font-size: 10.2px;" transform="translate(131.90625,145.36719036102295)" y="0" x="0" id="text-entity-Page-7a725333-9963-54c6-94fb-e69f5a16bdeb-attr-6-key" class="er entityLabel"/></g><g transform="translate(468.6015625,20 )" id="entity-Navigation-d2042281-7988-5ce6-a47b-6308a5d8f626"><rect height="68.18359470367432" width="100" y="0" x="0" class="er entityBox"/><text style="dominant-baseline: middle; text-anchor: middle; font-size: 12px;" transform="translate(50,12)" y="0" x="0" id="text-entity-Navigation-d2042281-7988-5ce6-a47b-6308a5d8f626" class="er entityLabel">Navigation</text><rect height="22.091797828674316" width="40.338541666666664" y="24" x="0" class="er attributeBoxOdd"/><text style="dominant-baseline: middle; font-size: 10.2px;" transform="translate(5,35.04589891433716)" y="0" x="0" id="text-entity-Navigation-d2042281-7988-5ce6-a47b-6308a5d8f626-attr-1-type" class="er entityLabel">string</text><rect height="22.091797828674316" width="36.979166666666664" y="24" x="40.338541666666664" class="er attributeBoxOdd"/><text style="dominant-baseline: middle; font-size: 10.2px;" transform="translate(45.338541666666664,35.04589891433716)" y="0" x="0" id="text-entity-Navigation-d2042281-7988-5ce6-a47b-6308a5d8f626-attr-1-name" class="er entityLabel">name</text><rect height="22.091797828674316" width="22.682291666666668" y="24" x="77.31770833333333" class="er attributeBoxOdd"/><text style="dominant-baseline: middle; font-size: 10.2px;" transform="translate(82.31770833333333,35.04589891433716)" y="0" x="0" id="text-entity-Navigation-d2042281-7988-5ce6-a47b-6308a5d8f626-attr-1-key" class="er entityLabel">PK</text><rect height="22.091796875" width="40.338541666666664" y="46.091797828674316" x="0" class="er attributeBoxEven"/><text style="dominant-baseline: middle; font-size: 10.2px;" transform="translate(5,57.137696266174316)" y="0" x="0" id="text-entity-Navigation-d2042281-7988-5ce6-a47b-6308a5d8f626-attr-2-type" class="er entityLabel">page[]</text><rect height="22.091796875" width="36.979166666666664" y="46.091797828674316" x="40.338541666666664" class="er attributeBoxEven"/><text style="dominant-baseline: middle; font-size: 10.2px;" transform="translate(45.338541666666664,57.137696266174316)" y="0" x="0" id="text-entity-Navigation-d2042281-7988-5ce6-a47b-6308a5d8f626-attr-2-name" class="er entityLabel">pages</text><rect height="22.091796875" width="22.682291666666668" y="46.091797828674316" x="77.31770833333333" class="er attributeBoxEven"/><text style="dominant-baseline: middle; font-size: 10.2px;" transform="translate(82.31770833333333,57.137696266174316)" y="0" x="0" id="text-entity-Navigation-d2042281-7988-5ce6-a47b-6308a5d8f626-attr-2-key" class="er entityLabel"/></g><g transform="translate(20,444.55078125 )" id="entity-MetaSeo-9a3d74c9-0464-58a7-bc38-e0cd52fa1e8d"><rect height="200.7343807220459" width="118.296875" y="0" x="0" class="er entityBox"/><text style="dominant-baseline: middle; text-anchor: middle; font-size: 12px;" transform="translate(59.1484375,12)" y="0" x="0" id="text-entity-MetaSeo-9a3d74c9-0464-58a7-bc38-e0cd52fa1e8d" class="er entityLabel">MetaSeo</text><rect height="22.091797828674316" width="35.75" y="24" x="0" class="er attributeBoxOdd"/><text style="dominant-baseline: middle; font-size: 10.2px;" transform="translate(5,35.04589891433716)" y="0" x="0" id="text-entity-MetaSeo-9a3d74c9-0464-58a7-bc38-e0cd52fa1e8d-attr-1-type" class="er entityLabel">string</text><rect height="22.091797828674316" width="60.984375" y="24" x="35.75" class="er attributeBoxOdd"/><text style="dominant-baseline: middle; font-size: 10.2px;" transform="translate(40.75,35.04589891433716)" y="0" x="0" id="text-entity-MetaSeo-9a3d74c9-0464-58a7-bc38-e0cd52fa1e8d-attr-1-name" class="er entityLabel">name</text><rect height="22.091797828674316" width="21.5625" y="24" x="96.734375" class="er attributeBoxOdd"/><text style="dominant-baseline: middle; font-size: 10.2px;" transform="translate(101.734375,35.04589891433716)" y="0" x="0" id="text-entity-MetaSeo-9a3d74c9-0464-58a7-bc38-e0cd52fa1e8d-attr-1-key" class="er entityLabel">PK</text><rect height="22.091797828674316" width="35.75" y="46.091797828674316" x="0" class="er attributeBoxEven"/><text style="dominant-baseline: middle; font-size: 10.2px;" transform="translate(5,57.137696743011475)" y="0" x="0" id="text-entity-MetaSeo-9a3d74c9-0464-58a7-bc38-e0cd52fa1e8d-attr-2-type" class="er entityLabel">string</text><rect height="22.091797828674316" width="60.984375" y="46.091797828674316" x="35.75" class="er attributeBoxEven"/><text style="dominant-baseline: middle; font-size: 10.2px;" transform="translate(40.75,57.137696743011475)" y="0" x="0" id="text-entity-MetaSeo-9a3d74c9-0464-58a7-bc38-e0cd52fa1e8d-attr-2-name" class="er entityLabel">title</text><rect height="22.091797828674316" width="21.5625" y="46.091797828674316" x="96.734375" class="er attributeBoxEven"/><text style="dominant-baseline: middle; font-size: 10.2px;" transform="translate(101.734375,57.137696743011475)" y="0" x="0" id="text-entity-MetaSeo-9a3d74c9-0464-58a7-bc38-e0cd52fa1e8d-attr-2-key" class="er entityLabel"/><rect height="22.091797828674316" width="35.75" y="68.18359565734863" x="0" class="er attributeBoxOdd"/><text style="dominant-baseline: middle; font-size: 10.2px;" transform="translate(5,79.22949457168579)" y="0" x="0" id="text-entity-MetaSeo-9a3d74c9-0464-58a7-bc38-e0cd52fa1e8d-attr-3-type" class="er entityLabel">asset</text><rect height="22.091797828674316" width="60.984375" y="68.18359565734863" x="35.75" class="er attributeBoxOdd"/><text style="dominant-baseline: middle; font-size: 10.2px;" transform="translate(40.75,79.22949457168579)" y="0" x="0" id="text-entity-MetaSeo-9a3d74c9-0464-58a7-bc38-e0cd52fa1e8d-attr-3-name" class="er entityLabel">image</text><rect height="22.091797828674316" width="21.5625" y="68.18359565734863" x="96.734375" class="er attributeBoxOdd"/><text style="dominant-baseline: middle; font-size: 10.2px;" transform="translate(101.734375,79.22949457168579)" y="0" x="0" id="text-entity-MetaSeo-9a3d74c9-0464-58a7-bc38-e0cd52fa1e8d-attr-3-key" class="er entityLabel"/><rect height="22.091796875" width="35.75" y="90.27539348602295" x="0" class="er attributeBoxEven"/><text style="dominant-baseline: middle; font-size: 10.2px;" transform="translate(5,101.32129192352295)" y="0" x="0" id="text-entity-MetaSeo-9a3d74c9-0464-58a7-bc38-e0cd52fa1e8d-attr-4-type" class="er entityLabel">text</text><rect height="22.091796875" width="60.984375" y="90.27539348602295" x="35.75" class="er attributeBoxEven"/><text style="dominant-baseline: middle; font-size: 10.2px;" transform="translate(40.75,101.32129192352295)" y="0" x="0" id="text-entity-MetaSeo-9a3d74c9-0464-58a7-bc38-e0cd52fa1e8d-attr-4-name" class="er entityLabel">description</text><rect height="22.091796875" width="21.5625" y="90.27539348602295" x="96.734375" class="er attributeBoxEven"/><text style="dominant-baseline: middle; font-size: 10.2px;" transform="translate(101.734375,101.32129192352295)" y="0" x="0" id="text-entity-MetaSeo-9a3d74c9-0464-58a7-bc38-e0cd52fa1e8d-attr-4-key" class="er entityLabel"/><rect height="22.091797828674316" width="35.75" y="112.36719036102295" x="0" class="er attributeBoxOdd"/><text style="dominant-baseline: middle; font-size: 10.2px;" transform="translate(5,123.41308927536011)" y="0" x="0" id="text-entity-MetaSeo-9a3d74c9-0464-58a7-bc38-e0cd52fa1e8d-attr-5-type" class="er entityLabel">string</text><rect height="22.091797828674316" width="60.984375" y="112.36719036102295" x="35.75" class="er attributeBoxOdd"/><text style="dominant-baseline: middle; font-size: 10.2px;" transform="translate(40.75,123.41308927536011)" y="0" x="0" id="text-entity-MetaSeo-9a3d74c9-0464-58a7-bc38-e0cd52fa1e8d-attr-5-name" class="er entityLabel">name</text><rect height="22.091797828674316" width="21.5625" y="112.36719036102295" x="96.734375" class="er attributeBoxOdd"/><text style="dominant-baseline: middle; font-size: 10.2px;" transform="translate(101.734375,123.41308927536011)" y="0" x="0" id="text-entity-MetaSeo-9a3d74c9-0464-58a7-bc38-e0cd52fa1e8d-attr-5-key" class="er entityLabel">PK</text><rect height="22.091797828674316" width="35.75" y="134.45898818969727" x="0" class="er attributeBoxEven"/><text style="dominant-baseline: middle; font-size: 10.2px;" transform="translate(5,145.50488710403442)" y="0" x="0" id="text-entity-MetaSeo-9a3d74c9-0464-58a7-bc38-e0cd52fa1e8d-attr-6-type" class="er entityLabel">string</text><rect height="22.091797828674316" width="60.984375" y="134.45898818969727" x="35.75" class="er attributeBoxEven"/><text style="dominant-baseline: middle; font-size: 10.2px;" transform="translate(40.75,145.50488710403442)" y="0" x="0" id="text-entity-MetaSeo-9a3d74c9-0464-58a7-bc38-e0cd52fa1e8d-attr-6-name" class="er entityLabel">title</text><rect height="22.091797828674316" width="21.5625" y="134.45898818969727" x="96.734375" class="er attributeBoxEven"/><text style="dominant-baseline: middle; font-size: 10.2px;" transform="translate(101.734375,145.50488710403442)" y="0" x="0" id="text-entity-MetaSeo-9a3d74c9-0464-58a7-bc38-e0cd52fa1e8d-attr-6-key" class="er entityLabel"/><rect height="22.091797828674316" width="35.75" y="156.55078601837158" x="0" class="er attributeBoxOdd"/><text style="dominant-baseline: middle; font-size: 10.2px;" transform="translate(5,167.59668493270874)" y="0" x="0" id="text-entity-MetaSeo-9a3d74c9-0464-58a7-bc38-e0cd52fa1e8d-attr-7-type" class="er entityLabel">asset</text><rect height="22.091797828674316" width="60.984375" y="156.55078601837158" x="35.75" class="er attributeBoxOdd"/><text style="dominant-baseline: middle; font-size: 10.2px;" transform="translate(40.75,167.59668493270874)" y="0" x="0" id="text-entity-MetaSeo-9a3d74c9-0464-58a7-bc38-e0cd52fa1e8d-attr-7-name" class="er entityLabel">image</text><rect height="22.091797828674316" width="21.5625" y="156.55078601837158" x="96.734375" class="er attributeBoxOdd"/><text style="dominant-baseline: middle; font-size: 10.2px;" transform="translate(101.734375,167.59668493270874)" y="0" x="0" id="text-entity-MetaSeo-9a3d74c9-0464-58a7-bc38-e0cd52fa1e8d-attr-7-key" class="er entityLabel"/><rect height="22.091796875" width="35.75" y="178.6425838470459" x="0" class="er attributeBoxEven"/><text style="dominant-baseline: middle; font-size: 10.2px;" transform="translate(5,189.6884822845459)" y="0" x="0" id="text-entity-MetaSeo-9a3d74c9-0464-58a7-bc38-e0cd52fa1e8d-attr-8-type" class="er entityLabel">text</text><rect height="22.091796875" width="60.984375" y="178.6425838470459" x="35.75" class="er attributeBoxEven"/><text style="dominant-baseline: middle; font-size: 10.2px;" transform="translate(40.75,189.6884822845459)" y="0" x="0" id="text-entity-MetaSeo-9a3d74c9-0464-58a7-bc38-e0cd52fa1e8d-attr-8-name" class="er entityLabel">description</text><rect height="22.091796875" width="21.5625" y="178.6425838470459" x="96.734375" class="er attributeBoxEven"/><text style="dominant-baseline: middle; font-size: 10.2px;" transform="translate(101.734375,189.6884822845459)" y="0" x="0" id="text-entity-MetaSeo-9a3d74c9-0464-58a7-bc38-e0cd52fa1e8d-attr-8-key" class="er entityLabel"/></g><g transform="translate(238.296875,507.41796875 )" id="entity-HomepageLayout-dbe8bb8e-ada0-5546-b925-9370ed192fdd"><rect height="75" width="122.421875" y="0" x="0" class="er entityBox"/><text style="dominant-baseline: middle; text-anchor: middle; font-size: 12px;" transform="translate(61.2109375,37.5)" y="0" x="0" id="text-entity-HomepageLayout-dbe8bb8e-ada0-5546-b925-9370ed192fdd" class="er entityLabel">HomepageLayout</text></g><g transform="translate(460.71875,507.41796875 )" id="entity-DirectoryLayout-0258d8ad-d6d1-5f75-a55e-d45114293d0e"><rect height="75" width="115.765625" y="0" x="0" class="er entityBox"/><text style="dominant-baseline: middle; text-anchor: middle; font-size: 12px;" transform="translate(57.8828125,37.5)" y="0" x="0" id="text-entity-DirectoryLayout-0258d8ad-d6d1-5f75-a55e-d45114293d0e" class="er entityLabel">DirectoryLayout</text></g><g transform="translate(676.484375,507.41796875 )" id="entity-SubdirectoryLayout-69ec3e09-f696-5727-b3a5-666d1be1b324"><rect height="75" width="134.109375" y="0" x="0" class="er entityBox"/><text style="dominant-baseline: middle; text-anchor: middle; font-size: 12px;" transform="translate(67.0546875,37.5)" y="0" x="0" id="text-entity-SubdirectoryLayout-69ec3e09-f696-5727-b3a5-666d1be1b324" class="er entityLabel">SubdirectoryLayout</text></g><g transform="translate(910.59375,507.41796875 )" id="entity-TopicLayout-f0e126a2-1f4d-5989-9f27-4136c009ca4a"><rect height="75" width="100" y="0" x="0" class="er entityBox"/><text style="dominant-baseline: middle; text-anchor: middle; font-size: 12px;" transform="translate(50,37.5)" y="0" x="0" id="text-entity-TopicLayout-f0e126a2-1f4d-5989-9f27-4136c009ca4a" class="er entityLabel">TopicLayout</text></g><rect height="14" width="71.015625" y="259.3671875" x="656.4948120117188" class="er relationshipLabelBox"/><text style="text-anchor: middle; dominant-baseline: middle; font-size: 12px;" y="266.3671875" x="692.0026245117188" id="rel1" class="er relationshipLabel">is Subpage of</text><rect height="14" width="44.84375" y="131.18359375" x="496.1796875" class="er relationshipLabelBox"/><text style="text-anchor: middle; dominant-baseline: middle; font-size: 12px;" y="138.18359375" x="518.6015625" id="rel2" class="er relationshipLabel">contains</text><rect height="14" width="57.3125" y="339.93511962890625" x="218.57078552246094" class="er relationshipLabelBox"/><text style="text-anchor: middle; dominant-baseline: middle; font-size: 12px;" y="346.93511962890625" x="247.22703552246094" id="rel3" class="er relationshipLabel">references</text><rect height="14" width="57.3125" y="377.73681640625" x="307.3519592285156" class="er relationshipLabelBox"/><text style="text-anchor: middle; dominant-baseline: middle; font-size: 12px;" y="384.73681640625" x="336.0082092285156" id="rel4" class="er relationshipLabel">references</text><rect height="14" width="57.3125" y="418.984375" x="489.9453125" class="er relationshipLabelBox"/><text style="text-anchor: middle; dominant-baseline: middle; font-size: 12px;" y="425.984375" x="518.6015625" id="rel5" class="er relationshipLabel">references</text><rect height="14" width="57.3125" y="376.3494873046875" x="675.7975463867188" class="er relationshipLabelBox"/><text style="text-anchor: middle; dominant-baseline: middle; font-size: 12px;" y="383.3494873046875" x="704.4537963867188" id="rel6" class="er relationshipLabel">references</text><rect height="14" width="57.3125" y="349.611328125" x="784.6178588867188" class="er relationshipLabelBox"/><text style="text-anchor: middle; dominant-baseline: middle; font-size: 12px;" y="356.611328125" x="813.2741088867188" id="rel7" class="er relationshipLabel">references</text><style>.error-icon {
  fill:#552222;
 }

.error-text {
  fill:#552222;
  stroke:#552222;
 }

.edge-thickness-normal {
  stroke-width:2px;
 }

.edge-thickness-thick {
  stroke-width:3.5px;
 }

.edge-pattern-solid {
  stroke-dasharray:0;
 }

.edge-pattern-dashed {
  stroke-dasharray:3;
 }

.edge-pattern-dotted {
  stroke-dasharray:2;
 }

.marker {
  fill:#333333;
  stroke:#333333;
 }

.marker.cross {
  stroke:#333333;
 }

svg {
  font-family:"trebuchet ms",verdana,arial,sans-serif;
  font-size:16px;
 }

.entityBox {
  fill: var(--main-blue) !important;
  color: #fff !important;
  stroke: var(--main-blue) !important;
 }

 g .entityLabel:first-of-type {
  fill: #fff !important;
 }

.attributeBoxOdd {
  fill:#ffffff;
 stroke: var(--main-blue) !important;
 }

.attributeBoxEven {
  fill: rgb(229, 255, 255) !important;
  stroke: var(--main-blue) !important;
 }

.relationshipLabelBox {
  fill:hsl(196, 100%, 90%) !important;
  opacity:0.7;
 }

.relationshipLabelBox rect {
  opacity:0.5;
 }

.relationshipLine {
  stroke:#333333;
 }

.entityTitleText {
  text-anchor:middle;
  font-size:18px;
  color: #fff !important;
 }

:root {
  --mermaid-font-family:"trebuchet ms",verdana,arial,sans-serif;
 --main-blue: rgb(0, 174, 239);
 --main-purple: rgb(133, 38, 255);
}

</style></svg>